<mxfile host="app.diagrams.net" modified="2024-03-16T23:49:19.085Z" agent="Mozilla/5.0 (Windows NT 10.0; Win64; x64; rv:123.0) Gecko/20100101 Firefox/123.0" etag="bjjkaO8HCIa73Un5FFbx" version="24.0.6" type="device">
  <diagram name="Page-1" id="NvAkbxbGMfdatR-s8Hgs">
    <mxGraphModel dx="1021" dy="1724" grid="1" gridSize="10" guides="1" tooltips="1" connect="1" arrows="1" fold="1" page="1" pageScale="1" pageWidth="850" pageHeight="1100" math="0" shadow="0">
      <root>
        <mxCell id="0" />
        <mxCell id="1" parent="0" />
        <mxCell id="PcOxOH7UWktPn3JKr5mv-15" style="edgeStyle=orthogonalEdgeStyle;rounded=0;orthogonalLoop=1;jettySize=auto;html=1;entryX=0.5;entryY=0;entryDx=0;entryDy=0;" parent="1" source="PcOxOH7UWktPn3JKr5mv-5" target="PcOxOH7UWktPn3JKr5mv-9" edge="1">
          <mxGeometry relative="1" as="geometry" />
        </mxCell>
        <mxCell id="PcOxOH7UWktPn3JKr5mv-5" value="Initialization" style="swimlane;fontStyle=0;childLayout=stackLayout;horizontal=1;startSize=26;fillColor=none;horizontalStack=0;resizeParent=1;resizeParentMax=0;resizeLast=0;collapsible=1;marginBottom=0;whiteSpace=wrap;html=1;" parent="1" vertex="1">
          <mxGeometry x="250" y="40" width="210" height="90" as="geometry" />
        </mxCell>
        <mxCell id="PcOxOH7UWktPn3JKr5mv-6" value="Exit // Initializes Scheduler" style="text;strokeColor=none;fillColor=none;align=left;verticalAlign=top;spacingLeft=4;spacingRight=4;overflow=hidden;rotatable=0;points=[[0,0.5],[1,0.5]];portConstraint=eastwest;whiteSpace=wrap;html=1;" parent="PcOxOH7UWktPn3JKr5mv-5" vertex="1">
          <mxGeometry y="26" width="210" height="64" as="geometry" />
        </mxCell>
        <mxCell id="PcOxOH7UWktPn3JKr5mv-16" style="edgeStyle=orthogonalEdgeStyle;rounded=0;orthogonalLoop=1;jettySize=auto;html=1;" parent="1" source="PcOxOH7UWktPn3JKr5mv-9" target="PcOxOH7UWktPn3JKr5mv-11" edge="1">
          <mxGeometry relative="1" as="geometry">
            <Array as="points">
              <mxPoint x="355" y="400" />
              <mxPoint x="355" y="400" />
            </Array>
          </mxGeometry>
        </mxCell>
        <mxCell id="PcOxOH7UWktPn3JKr5mv-9" value="IDLE" style="swimlane;fontStyle=0;childLayout=stackLayout;horizontal=1;startSize=26;fillColor=none;horizontalStack=0;resizeParent=1;resizeParentMax=0;resizeLast=0;collapsible=1;marginBottom=0;whiteSpace=wrap;html=1;" parent="1" vertex="1">
          <mxGeometry x="250" y="200" width="210" height="90" as="geometry" />
        </mxCell>
        <mxCell id="PcOxOH7UWktPn3JKr5mv-10" value="&lt;div&gt;Entry // Initialization &lt;br&gt;&lt;/div&gt;waitRequest()&lt;br&gt;Exit // " style="text;strokeColor=none;fillColor=none;align=left;verticalAlign=top;spacingLeft=4;spacingRight=4;overflow=hidden;rotatable=0;points=[[0,0.5],[1,0.5]];portConstraint=eastwest;whiteSpace=wrap;html=1;" parent="PcOxOH7UWktPn3JKr5mv-9" vertex="1">
          <mxGeometry y="26" width="210" height="64" as="geometry" />
        </mxCell>
        <mxCell id="Q9I5ssZiOKEQaunxDEBR-10" style="edgeStyle=orthogonalEdgeStyle;rounded=0;orthogonalLoop=1;jettySize=auto;html=1;exitX=0.5;exitY=1;exitDx=0;exitDy=0;entryX=0.5;entryY=0;entryDx=0;entryDy=0;" edge="1" parent="1" source="PcOxOH7UWktPn3JKr5mv-11" target="Q9I5ssZiOKEQaunxDEBR-9">
          <mxGeometry relative="1" as="geometry" />
        </mxCell>
        <mxCell id="PcOxOH7UWktPn3JKr5mv-11" value="SCHEDULING" style="swimlane;fontStyle=0;childLayout=stackLayout;horizontal=1;startSize=26;fillColor=none;horizontalStack=0;resizeParent=1;resizeParentMax=0;resizeLast=0;collapsible=1;marginBottom=0;whiteSpace=wrap;html=1;" parent="1" vertex="1">
          <mxGeometry x="250" y="370" width="210" height="90" as="geometry" />
        </mxCell>
        <mxCell id="PcOxOH7UWktPn3JKr5mv-12" value="Entry // parseRequest(); &lt;br&gt;chooseElevator();&lt;br&gt;Exit // sendRequest()" style="text;strokeColor=none;fillColor=none;align=left;verticalAlign=top;spacingLeft=4;spacingRight=4;overflow=hidden;rotatable=0;points=[[0,0.5],[1,0.5]];portConstraint=eastwest;whiteSpace=wrap;html=1;" parent="PcOxOH7UWktPn3JKr5mv-11" vertex="1">
          <mxGeometry y="26" width="210" height="64" as="geometry" />
        </mxCell>
        <mxCell id="PcOxOH7UWktPn3JKr5mv-17" value="[waitRequest() receives packet]" style="text;html=1;align=center;verticalAlign=middle;whiteSpace=wrap;rounded=0;" parent="1" vertex="1">
          <mxGeometry x="360" y="320" width="110" height="30" as="geometry" />
        </mxCell>
        <mxCell id="PcOxOH7UWktPn3JKr5mv-20" value="Running" style="shape=umlFrame;whiteSpace=wrap;html=1;pointerEvents=0;" parent="1" vertex="1">
          <mxGeometry x="90" y="170" width="550" height="400" as="geometry" />
        </mxCell>
        <mxCell id="PcOxOH7UWktPn3JKr5mv-24" value="initializeFloorsAndElevators()" style="text;html=1;align=center;verticalAlign=middle;whiteSpace=wrap;rounded=0;" parent="1" vertex="1">
          <mxGeometry x="410" y="130" width="60" height="40" as="geometry" />
        </mxCell>
        <mxCell id="Q9I5ssZiOKEQaunxDEBR-7" value="" style="ellipse;html=1;shape=startState;fillColor=#000000;strokeColor=#000000;" vertex="1" parent="1">
          <mxGeometry x="340" y="-30" width="30" height="30" as="geometry" />
        </mxCell>
        <mxCell id="Q9I5ssZiOKEQaunxDEBR-8" value="" style="edgeStyle=orthogonalEdgeStyle;html=1;verticalAlign=bottom;endArrow=open;endSize=8;strokeColor=#000000;rounded=0;" edge="1" source="Q9I5ssZiOKEQaunxDEBR-7" parent="1">
          <mxGeometry relative="1" as="geometry">
            <mxPoint x="355" y="40" as="targetPoint" />
          </mxGeometry>
        </mxCell>
        <mxCell id="Q9I5ssZiOKEQaunxDEBR-12" style="edgeStyle=orthogonalEdgeStyle;rounded=0;orthogonalLoop=1;jettySize=auto;html=1;exitX=1;exitY=0.5;exitDx=0;exitDy=0;entryX=1;entryY=0.5;entryDx=0;entryDy=0;" edge="1" parent="1" source="Q9I5ssZiOKEQaunxDEBR-9" target="PcOxOH7UWktPn3JKr5mv-10">
          <mxGeometry relative="1" as="geometry">
            <Array as="points">
              <mxPoint x="530" y="525" />
              <mxPoint x="530" y="258" />
            </Array>
          </mxGeometry>
        </mxCell>
        <mxCell id="Q9I5ssZiOKEQaunxDEBR-9" value="" style="ellipse;whiteSpace=wrap;html=1;aspect=fixed;" vertex="1" parent="1">
          <mxGeometry x="340" y="510" width="30" height="30" as="geometry" />
        </mxCell>
        <mxCell id="Q9I5ssZiOKEQaunxDEBR-13" style="edgeStyle=orthogonalEdgeStyle;rounded=0;orthogonalLoop=1;jettySize=auto;html=1;exitX=0;exitY=0.5;exitDx=0;exitDy=0;entryX=-0.005;entryY=0.344;entryDx=0;entryDy=0;entryPerimeter=0;" edge="1" parent="1" source="Q9I5ssZiOKEQaunxDEBR-9" target="PcOxOH7UWktPn3JKr5mv-12">
          <mxGeometry relative="1" as="geometry">
            <Array as="points">
              <mxPoint x="180" y="525" />
              <mxPoint x="180" y="418" />
            </Array>
          </mxGeometry>
        </mxCell>
        <mxCell id="Q9I5ssZiOKEQaunxDEBR-14" value="[waitRequest() receives packet]" style="text;html=1;align=center;verticalAlign=middle;resizable=0;points=[];autosize=1;strokeColor=none;fillColor=none;" vertex="1" parent="1">
          <mxGeometry x="140" y="528" width="190" height="30" as="geometry" />
        </mxCell>
        <mxCell id="Q9I5ssZiOKEQaunxDEBR-15" value="&lt;div&gt;[else]&lt;/div&gt;" style="text;html=1;align=center;verticalAlign=middle;resizable=0;points=[];autosize=1;strokeColor=none;fillColor=none;" vertex="1" parent="1">
          <mxGeometry x="425" y="528" width="50" height="30" as="geometry" />
        </mxCell>
      </root>
    </mxGraphModel>
  </diagram>
</mxfile>
